<svg width="24" height="24" viewBox="0 0 24 24" fill="none" xmlns="http://www.w3.org/2000/svg">
<path d="M20.3438 17.1562H18.6961C18.5836 17.1562 18.4781 17.2054 18.4078 17.2922C18.2438 17.4914 18.068 17.6836 17.8828 17.8664C17.1255 18.6244 16.2285 19.2285 15.2414 19.6453C14.2187 20.0772 13.1195 20.2988 12.0094 20.2968C10.8867 20.2968 9.79922 20.0765 8.77735 19.6453C7.79023 19.2285 6.89322 18.6244 6.13594 17.8664C5.3773 17.1109 4.77239 16.2155 4.35469 15.2297C3.9211 14.2078 3.70313 13.1226 3.70313 12C3.70313 10.8773 3.92344 9.79216 4.35469 8.77029C4.77188 7.78357 5.37188 6.89529 6.13594 6.13357C6.9 5.37185 7.78828 4.77185 8.77735 4.35466C9.79922 3.92341 10.8867 3.7031 12.0094 3.7031C13.132 3.7031 14.2195 3.92107 15.2414 4.35466C16.2305 4.77185 17.1188 5.37185 17.8828 6.13357C18.068 6.31872 18.2414 6.51091 18.4078 6.70779C18.4781 6.79451 18.5859 6.84372 18.6961 6.84372H20.3438C20.4914 6.84372 20.5828 6.67966 20.5008 6.55544C18.7031 3.76169 15.5578 1.91247 11.9836 1.92185C6.36797 1.93591 1.86563 6.49451 1.92188 12.1031C1.97813 17.6226 6.47344 22.0781 12.0094 22.0781C15.5742 22.0781 18.7055 20.2312 20.5008 17.4445C20.5805 17.3203 20.4914 17.1562 20.3438 17.1562ZM22.4273 11.8523L19.1016 9.22732C18.9773 9.12888 18.7969 9.21794 18.7969 9.37497V11.1562H11.4375C11.3344 11.1562 11.25 11.2406 11.25 11.3437V12.6562C11.25 12.7593 11.3344 12.8437 11.4375 12.8437H18.7969V14.625C18.7969 14.782 18.9797 14.8711 19.1016 14.7726L22.4273 12.1476C22.4498 12.1301 22.4679 12.1077 22.4803 12.0821C22.4928 12.0565 22.4993 12.0284 22.4993 12C22.4993 11.9715 22.4928 11.9434 22.4803 11.9178C22.4679 11.8923 22.4498 11.8699 22.4273 11.8523V11.8523Z" fill="#FE0000"/>
</svg>
