<svg width="152" height="152" viewBox="0 0 152 152" fill="none" xmlns="http://www.w3.org/2000/svg">
<path d="M18.0996 119.69C16.9026 121.097 14.7149 120.992 13.6571 119.478C5.04925 107.159 0 92.169 0 76C0 34.0263 34.0263 0 76 0C117.974 0 152 34.0263 152 76C152 92.1444 146.966 107.113 138.382 119.422C137.306 120.965 135.077 121.07 133.856 119.639C119.916 103.289 99.169 92.9219 76 92.9219C52.8066 92.9219 32.0396 103.311 18.0996 119.69Z" fill="#1F2847"/>
<path d="M138.344 36.8125V119.477C134.102 125.549 128.995 130.972 123.203 135.568C110.238 145.856 39.2133 144.86 25.8281 133.087C21.2488 129.059 17.1582 124.489 13.6562 119.477V36.8125C13.6562 35.1729 14.9854 33.8438 16.625 33.8438H135.375C137.015 33.8438 138.344 35.1729 138.344 36.8125Z" fill="#E9F3FE"/>
<path d="M25.5312 33.8438C23.8916 33.8438 22.5625 34.7522 22.5625 35.8729V130.041C19.2862 126.801 16.3029 123.265 13.6562 119.477V35.8729C13.6562 34.7522 14.9854 33.8438 16.625 33.8438H25.5312Z" fill="#C8E2FD"/>
<path d="M138.344 21.9688V36.8125H13.6562V21.9688C13.6562 18.6895 16.3145 16.0312 19.5938 16.0312H132.406C135.686 16.0312 138.344 18.6895 138.344 21.9688Z" fill="#76B6FA"/>
<path d="M28.5 16.0312C25.2207 16.0312 22.5625 18.6895 22.5625 21.9688V36.8125H13.6562V21.9688C13.6562 18.6895 16.3145 16.0312 19.5938 16.0312H28.5Z" fill="#55A4F9"/>
<path d="M23.75 26.4219C23.75 28.0615 22.4209 29.3906 20.7812 29.3906C19.1416 29.3906 17.8125 28.0615 17.8125 26.4219C17.8125 24.7822 19.1416 23.4531 20.7812 23.4531C22.4209 23.4531 23.75 24.7822 23.75 26.4219ZM41.5625 23.4531C39.9229 23.4531 38.5938 24.7822 38.5938 26.4219C38.5938 28.0615 39.9229 29.3906 41.5625 29.3906C43.2021 29.3906 44.5312 28.0615 44.5312 26.4219C44.5312 24.7822 43.2021 23.4531 41.5625 23.4531ZM31.1719 23.4531C29.5322 23.4531 28.2031 24.7822 28.2031 26.4219C28.2031 28.0615 29.5322 29.3906 31.1719 29.3906C32.8115 29.3906 34.1406 28.0615 34.1406 26.4219C34.1406 24.7822 32.8115 23.4531 31.1719 23.4531Z" fill="#1380E2"/>
<path d="M133.594 26.4219C133.594 28.0615 132.265 29.3906 130.625 29.3906H53.4375C51.7979 29.3906 50.4688 28.0615 50.4688 26.4219C50.4688 24.7822 51.7979 23.4531 53.4375 23.4531H130.625C132.265 23.4531 133.594 24.7822 133.594 26.4219Z" fill="#FFF5F5"/>
<path d="M36.2188 75.7031H115.781C120.7 75.7031 124.688 79.6905 124.688 84.6094C124.688 89.5283 120.7 93.5156 115.781 93.5156H36.2188C31.2998 93.5156 27.3125 89.5283 27.3125 84.6094C27.3125 79.6905 31.2998 75.7031 36.2188 75.7031ZM27.3125 54.0312C27.3125 58.9502 31.2998 62.9375 36.2188 62.9375H115.781C120.7 62.9375 124.688 58.9502 124.688 54.0312C124.688 49.1123 120.7 45.125 115.781 45.125H36.2188C31.2998 45.125 27.3125 49.1123 27.3125 54.0312ZM115.781 103.906H36.2188C31.2998 103.906 27.3125 107.894 27.3125 112.812V132.574C27.3125 133.719 27.835 134.803 28.7313 135.516C41.7068 145.835 58.1335 152 76 152C94.5244 152 111.501 145.373 124.688 134.359V112.812C124.688 107.894 120.7 103.906 115.781 103.906Z" fill="#C8E2FD"/>
<path d="M36.2188 74.2188H115.781C121.511 74.2188 126.172 78.88 126.172 84.6094C126.172 90.3388 121.511 95 115.781 95H36.2188C30.4894 95 25.8281 90.3388 25.8281 84.6094C25.8281 78.88 30.4894 74.2188 36.2188 74.2188ZM115.781 92.0312C119.874 92.0312 123.203 88.7018 123.203 84.6094C123.203 80.517 119.874 77.1875 115.781 77.1875H36.2188C32.1263 77.1875 28.7969 80.517 28.7969 84.6094C28.7969 88.7018 32.1263 92.0312 36.2188 92.0312H115.781ZM115.781 64.4219H36.2188C30.4894 64.4219 25.8281 59.7606 25.8281 54.0312C25.8281 48.3019 30.4894 43.6406 36.2188 43.6406H115.781C121.511 43.6406 126.172 48.3019 126.172 54.0312C126.172 59.7606 121.511 64.4219 115.781 64.4219ZM36.2188 46.6094C32.1263 46.6094 28.7969 49.9388 28.7969 54.0312C28.7969 58.1237 32.1263 61.4531 36.2188 61.4531H115.781C119.874 61.4531 123.203 58.1237 123.203 54.0312C123.203 49.9388 119.874 46.6094 115.781 46.6094H36.2188ZM115.781 102.422H36.2188C30.4894 102.422 25.8281 107.083 25.8281 112.812V133.087C26.7962 133.938 27.786 134.766 28.7969 135.568V112.812C28.7969 108.72 32.1263 105.391 36.2188 105.391H115.781C119.874 105.391 123.203 108.72 123.203 112.812V135.568C124.214 134.766 125.204 133.938 126.172 133.087V112.812C126.172 107.083 121.511 102.422 115.781 102.422Z" fill="white"/>
<path d="M71.9922 116.412H37.8516C36.6219 116.412 35.625 115.415 35.625 114.186C35.625 112.956 36.6219 111.959 37.8516 111.959H71.9922C73.2218 111.959 74.2188 112.956 74.2188 114.186C74.2188 115.415 73.2218 116.412 71.9922 116.412ZM53.4375 122.35C53.4375 121.12 52.4406 120.123 51.2109 120.123H37.8516C36.6219 120.123 35.625 121.12 35.625 122.35C35.625 123.579 36.6219 124.576 37.8516 124.576H51.2109C52.4406 124.576 53.4375 123.579 53.4375 122.35ZM74.2188 84.6094C74.2188 83.3797 73.2218 82.3828 71.9922 82.3828H37.8516C36.6219 82.3828 35.625 83.3797 35.625 84.6094C35.625 85.839 36.6219 86.8359 37.8516 86.8359H71.9922C73.2218 86.8359 74.2188 85.839 74.2188 84.6094ZM62.3438 54.1797C62.3438 52.95 61.3468 51.9531 60.1172 51.9531H37.8516C36.6219 51.9531 35.625 52.95 35.625 54.1797C35.625 55.4093 36.6219 56.4062 37.8516 56.4062H60.1172C61.3468 56.4062 62.3438 55.4093 62.3438 54.1797Z" fill="#A7D0FC"/>
<path d="M40.2432 133.067C40.2432 134.342 39.2095 135.376 37.9341 135.376C36.6587 135.376 35.625 134.342 35.625 133.067C35.625 131.792 36.6587 130.758 37.9341 130.758C39.2092 130.758 40.2432 131.792 40.2432 133.067ZM46.0156 130.758C44.7405 130.758 43.7065 131.792 43.7065 133.067C43.7065 134.342 44.7402 135.376 46.0156 135.376C47.291 135.376 48.3247 134.342 48.3247 133.067C48.3247 131.792 47.2907 130.758 46.0156 130.758ZM54.0972 130.758C52.8221 130.758 51.7881 131.792 51.7881 133.067C51.7881 134.342 52.8218 135.376 54.0972 135.376C55.3725 135.376 56.4062 134.342 56.4062 133.067C56.4062 131.792 55.3725 130.758 54.0972 130.758Z" fill="#76B6FA"/>
<path d="M108.108 64.0746L95.9532 109.437C95.6854 110.437 94.6577 111.03 93.6581 110.762C92.6585 110.495 92.065 109.467 92.3328 108.467L104.488 63.1044C104.756 62.1045 105.783 61.5114 106.783 61.7791C107.782 62.0472 108.376 63.075 108.108 64.0746Z" fill="#958FCA"/>
<path d="M104.76 92.5005L102.45 101.119C102.026 102.703 100.398 103.643 98.8145 103.219L92.9643 101.651C91.3804 101.227 90.4408 99.5988 90.865 98.0153L93.1744 89.3964C93.5987 87.8125 95.2267 86.8729 96.8106 87.2972L102.661 88.8647C104.244 89.2889 105.184 90.917 104.76 92.5005Z" fill="#8078BF"/>
<path d="M130.894 9.44701L123.133 38.4107L122.806 39.6339L104.07 34.2485L104.465 32.7772L112.068 4.40221C112.916 1.23485 116.172 -0.644963 119.339 0.203802L126.695 2.17476C129.863 3.02382 131.743 6.27935 130.894 9.44701Z" fill="#F15265"/>
<path d="M130.894 9.44788L123.133 38.4116L111.24 34.4166L118.798 6.2069C119.647 3.03954 122.903 1.15972 126.07 2.00849L126.695 2.17593C129.863 3.02469 131.743 6.28022 130.894 9.44788Z" fill="#FF576B"/>
<path d="M123.134 38.4116L108.779 91.982C107.931 95.1494 104.675 97.0292 101.508 96.1805L94.1512 94.2095C90.9839 93.3607 89.1041 90.1049 89.9528 86.9375L104.307 33.3671C105.156 30.1997 108.411 28.3199 111.579 29.1686L118.935 31.1396C122.103 31.9884 123.982 35.2442 123.134 38.4116Z" fill="#F15265"/>
<path d="M123.134 38.4096L108.78 91.9801C107.931 95.1475 104.675 97.0273 101.508 96.1785L100.883 96.0111C97.7153 95.1623 95.8355 91.9065 96.6843 88.7391L112.575 29.4336L118.935 31.1377C122.103 31.9864 123.982 35.2422 123.134 38.4096Z" fill="#FF576B"/>
<path d="M101.906 124.711H118.011C124.569 124.711 129.886 130.028 129.886 136.586C129.886 143.144 124.569 148.461 118.011 148.461H101.906C95.3475 148.461 90.0308 143.144 90.0308 136.586C90.0308 130.028 95.3475 124.711 101.906 124.711Z" fill="#5DB33A"/>
<path d="M111.035 124.711H122.803C129.361 124.711 134.678 130.028 134.678 136.586C134.678 143.144 129.361 148.461 122.803 148.461H111.035C104.476 148.461 99.1597 143.144 99.1597 136.586C99.1597 130.028 104.476 124.711 111.035 124.711Z" fill="#6DC54A"/>
<path d="M126.724 136.584C126.724 136.977 126.568 137.355 126.289 137.634L121.264 142.659C120.974 142.949 120.594 143.093 120.214 143.093C119.835 143.093 119.454 142.949 119.165 142.659C118.585 142.079 118.585 141.139 119.165 140.56L121.656 138.068H99.4692C98.6493 138.068 97.9849 137.403 97.9849 136.584C97.9849 135.764 98.6493 135.099 99.4692 135.099H121.656L119.165 132.608C118.585 132.028 118.585 131.088 119.165 130.509C119.744 129.929 120.685 129.929 121.264 130.509L126.29 135.534C126.568 135.813 126.724 136.19 126.724 136.584Z" fill="white"/>
</svg>
